<?xml version="1.0" encoding="utf-8"?>
<!-- Generator: Adobe Illustrator 18.1.1, SVG Export Plug-In . SVG Version: 6.00 Build 0)  -->
<svg version="1.1" xmlns="http://www.w3.org/2000/svg" xmlns:xlink="http://www.w3.org/1999/xlink" x="0px" y="0px"
	 viewBox="0 0 1250 1250" enable-background="new 0 0 1250 1250" xml:space="preserve">
<g id="globus">
	<g>
		<path d="M1030.3,976.3c85-95.7,136.6-221.5,136.6-359.3c0-143.3-55.9-273.7-147.1-370.7c-0.1-0.1-0.2-0.2-0.2-0.3
			c-95-100.8-227.9-165.4-375.9-170.5l-10.6-0.3c-2.7-0.1-5.5-0.2-8.2-0.2c-2.7,0-5.5,0.1-8.2,0.2l-10.5,0.3
			c-147.9,5.1-281,69.7-375.8,170.5c-0.1,0.1-0.2,0.2-0.2,0.3c0,0,0,0-0.1,0c-91.1,97-147.1,227.4-147.1,370.7
			c0,137.7,51.7,263.5,136.6,359.3c0.2,0.2,0.2,0.4,0.3,0.6c0.4,0.4,0.8,0.6,1.2,1.1c95.4,106.7,232.3,175.4,385.2,180.6l10.5,0.4
			c2.7,0,5.5,0.1,8.2,0.1c2.7,0,5.5-0.1,8.2-0.2l10.5-0.3h0.1c152.9-5.2,290-74.1,385.4-180.9c0.2-0.4,0.6-0.5,0.8-0.8
			C1030.2,976.7,1030.2,976.5,1030.3,976.3L1030.3,976.3z M120.9,635.8h224.3c2.1,79.2,17.6,156.2,45.2,228.3
			c-53.2,19.3-104,45-151.7,77.2C168.8,858,125.1,751.8,120.9,635.8L120.9,635.8z M249,281.2c46.5,30.2,96,54.4,147.6,72.6
			c-31.6,76.7-49.1,159.5-51.4,244.6H120.9C125.4,476.8,173,366,249,281.2L249,281.2z M1129.2,598.3H904.8
			c-2.3-85.1-19.7-167.9-51.4-244.6c51.6-18.2,101.2-42.4,147.6-72.6C1077.1,366,1124.7,476.8,1129.2,598.3L1129.2,598.3z
			 M606.3,354.7c-54-1.5-107-9.6-158.2-23.9c37.9-77.7,91.3-147.9,158.2-206.3V354.7z M606.3,392.1v206.2H382.6
			c2.3-81.2,19.3-160,49.8-233C488.6,381.5,546.9,390.6,606.3,392.1L606.3,392.1z M643.7,392.1c59.4-1.5,117.7-10.6,173.9-26.8
			c30.5,73,47.5,151.8,49.8,233H643.7V392.1z M643.7,354.7V124.5c67,58.4,120.4,128.6,158.3,206.3
			C750.7,345.1,697.7,353.2,643.7,354.7L643.7,354.7z M838.3,319.4c-36-75.2-85.8-143.7-147.4-202.5
			c109.5,14.3,208,63.8,283.8,136.8C931.5,281,885.8,303,838.3,319.4L838.3,319.4z M411.8,319.4c-47.6-16.4-93.3-38.4-136.3-65.7
			c75.8-73,174.3-122.5,283.7-136.8C497.5,175.7,447.7,244.2,411.8,319.4L411.8,319.4z M382.6,635.8h223.6v187.6
			c-61.8,1.7-122.3,11.2-180.5,28.8C399.5,783.9,384.7,710.9,382.6,635.8L382.6,635.8z M606.3,860.7v248.9
			c-71.6-62.5-127.7-138.4-166-222.7C493.9,871.1,549.5,862.3,606.3,860.7L606.3,860.7z M643.7,1109.6V860.7
			c56.8,1.6,112.4,10.4,166,26.2C771.6,971.2,715.3,1047.1,643.7,1109.6L643.7,1109.6z M643.7,823.4V635.8h223.7
			c-2.1,75.1-16.9,148.1-43.2,216.5C766.1,834.6,705.5,825,643.7,823.4L643.7,823.4z M904.8,635.8h224.4
			c-4.3,116.1-47.8,222.2-117.9,305.5c-47.6-32.2-98.4-57.9-151.6-77.2C887.3,792,902.7,715,904.8,635.8L904.8,635.8z M264.2,969.3
			c44.2-29.4,91.2-53,140.4-70.6c36.4,81.4,88.5,155.7,154.6,218.5C444.2,1102.1,341.4,1048.4,264.2,969.3L264.2,969.3z
			 M690.8,1117.2c66.1-62.9,118.2-137.1,154.6-218.5c49.2,17.6,96.3,41.3,140.5,70.6C908.6,1048.4,805.8,1102.1,690.8,1117.2
			L690.8,1117.2z M690.8,1117.2"/>
	</g>
</g>
<g id="background">
	<path fill="#FFFFFF" d="M327.1,613.3c-2.9-72.4,94.4-126.6,117.4-139.4c164.1-91.4,348.6,5.4,369.7,16.9
		c44.3,24.1,110.7,60.3,113.1,114.1C930.9,687.5,780,745.7,762,752.7c-106.9,41.3-202.2,20-230.5,12.7
		C515.1,761.1,330.9,711.3,327.1,613.3z"/>
	<g>
		<g>
			<path fill="#FFFFFF" d="M625,389.6c-160.3,0-299.2,92.2-367.5,226.9C325.8,751.1,464.7,843.3,625,843.3
				c160.3,0,299.2-92.2,367.5-226.9C924.2,481.8,785.3,389.6,625,389.6z M806.2,509.9c43.2,27.2,79.8,63.6,107.3,106.6
				C886,659.4,849.4,695.8,806.2,723c-54.3,34.2-116.9,52.3-181.2,52.3c-64.3,0-126.9-18.1-181.2-52.3
				c-43.2-27.2-79.8-63.7-107.3-106.6c27.5-42.9,64.1-79.4,107.3-106.6c2.8-1.8,5.7-3.5,8.5-5.2c-7.1,19.4-11.1,40.3-11.1,62.1
				c0,100.2,82.3,181.5,183.7,181.5c101.5,0,183.7-81.3,183.7-181.5c0-21.8-3.9-42.7-11.1-62.1C800.5,506.4,803.4,508.1,806.2,509.9
				z M625,544.2c0,37.6-30.8,68.1-68.9,68.1c-38.1,0-68.9-30.5-68.9-68.1c0-37.6,30.8-68.1,68.9-68.1
				C594.2,476.1,625,506.6,625,544.2z"/>
		</g>
		<g>
		</g>
		<g>
		</g>
		<g>
		</g>
		<g>
		</g>
		<g>
		</g>
		<g>
		</g>
		<g>
		</g>
		<g>
		</g>
		<g>
		</g>
		<g>
		</g>
		<g>
		</g>
		<g>
		</g>
		<g>
		</g>
		<g>
		</g>
		<g>
		</g>
	</g>
</g>
<g id="eye">
	<g>
		<g>
			<path fill="#010202" d="M625,418c-140.2,0-261.7,80.6-321.4,198.4C363.3,734.3,484.8,814.9,625,814.9
				c140.2,0,261.7-80.6,321.4-198.4C886.7,498.7,765.2,418,625,418z M783.5,523.3c37.8,23.8,69.8,55.7,93.8,93.2
				c-24,37.5-56,69.4-93.8,93.2C736,739.6,681.2,755.4,625,755.4c-56.2,0-111-15.8-158.5-45.7c-37.8-23.8-69.8-55.7-93.8-93.2
				c24-37.5,56-69.4,93.8-93.2c2.5-1.6,4.9-3.1,7.4-4.5c-6.3,16.9-9.7,35.2-9.7,54.3c0,87.7,72,158.7,160.7,158.7
				c88.8,0,160.7-71.1,160.7-158.7c0-19.1-3.4-37.4-9.7-54.3C778.5,520.2,781,521.7,783.5,523.3z M625,553.2
				c0,32.9-27,59.5-60.3,59.5s-60.3-26.7-60.3-59.5c0-32.9,27-59.5,60.3-59.5S625,520.3,625,553.2z"/>
		</g>
		<g>
		</g>
		<g>
		</g>
		<g>
		</g>
		<g>
		</g>
		<g>
		</g>
		<g>
		</g>
		<g>
		</g>
		<g>
		</g>
		<g>
		</g>
		<g>
		</g>
		<g>
		</g>
		<g>
		</g>
		<g>
		</g>
		<g>
		</g>
		<g>
		</g>
	</g>
</g>
<g id="Ebene_6" display="none">
	<path display="inline" fill="#66BC98" d="M608.9,580.7c0,95-77,172.1-172.1,172.1s-172.1-77-172.1-172.1
		c0-20.7,10.3-58.8,10.3-58.8s87.6-44,162-44c74.2,0,161.3,43.6,161.3,43.6S608.9,559.9,608.9,580.7z"/>
</g>
<g id="Ebene_4">
	<circle fill="#66BC98" cx="564.7" cy="553.5" r="60.8"/>
</g>
</svg>
